<svg width="331" height="48" viewBox="0 0 331 48" fill="none" xmlns="http://www.w3.org/2000/svg">
<path d="M30.4201 47.04H22.0201L11.0401 28.32L7.44007 31.38V47.04H6.55651e-05V4.20004H7.44007V24.48C8.04007 23.56 8.70007 22.6 9.42007 21.6C10.1401 20.56 10.9001 19.48 11.7001 18.36L21.9001 4.20004H30.1201L16.3201 23.1L30.4201 47.04ZM45.4135 13.86C49.2135 13.86 52.0735 14.8 53.9935 16.68C55.9535 18.56 56.9335 21.4 56.9335 25.2V47.04H51.7135L50.3935 42.6H50.2135C49.3735 43.72 48.5135 44.66 47.6335 45.42C46.7535 46.18 45.7335 46.74 44.5735 47.1C43.4535 47.46 42.0935 47.64 40.4935 47.64C38.6135 47.64 36.9735 47.24 35.5735 46.44C34.2135 45.64 33.1535 44.5 32.3935 43.02C31.6735 41.5 31.3135 39.7 31.3135 37.62C31.3135 34.22 32.4335 31.68 34.6735 30C36.9135 28.28 40.2735 27.34 44.7535 27.18L49.7335 27V25.38C49.7335 23.3 49.2935 21.8 48.4135 20.88C47.5735 19.96 46.3335 19.5 44.6935 19.5C43.3335 19.5 41.9735 19.72 40.6135 20.16C39.2535 20.56 37.8935 21.12 36.5335 21.84L34.2535 16.62C35.8135 15.78 37.5335 15.12 39.4135 14.64C41.3335 14.12 43.3335 13.86 45.4135 13.86ZM46.3135 31.74C43.5535 31.86 41.5935 32.42 40.4335 33.42C39.2735 34.38 38.6935 35.76 38.6935 37.56C38.6935 39.12 39.0935 40.26 39.8935 40.98C40.6935 41.7 41.7335 42.06 43.0135 42.06C44.9335 42.06 46.5335 41.42 47.8135 40.14C49.0935 38.82 49.7335 36.94 49.7335 34.5V31.62L46.3135 31.74ZM80.2215 13.86C83.5415 13.86 86.1015 14.82 87.9015 16.74C89.7415 18.62 90.6615 21.58 90.6615 25.62V47.04H83.4615V27.24C83.4615 24.8 83.0415 22.98 82.2015 21.78C81.4015 20.54 80.1015 19.92 78.3015 19.92C75.7015 19.92 73.9015 20.84 72.9015 22.68C71.9415 24.52 71.4615 27.32 71.4615 31.08V47.04H64.2015V14.46H69.8415L70.8015 18.78H71.2215C71.8215 17.66 72.5815 16.74 73.5015 16.02C74.4615 15.3 75.5015 14.76 76.6215 14.4C77.7815 14.04 78.9815 13.86 80.2215 13.86ZM109.861 13.92C112.621 13.92 114.961 14.52 116.881 15.72C118.801 16.92 120.261 18.62 121.261 20.82C122.301 22.98 122.821 25.58 122.821 28.62V32.52H103.561C103.601 35.6 104.301 37.94 105.661 39.54C107.061 41.14 109.041 41.94 111.601 41.94C113.401 41.94 115.041 41.74 116.521 41.34C118.041 40.94 119.621 40.32 121.261 39.48V45.42C119.781 46.18 118.241 46.74 116.641 47.1C115.041 47.46 113.181 47.64 111.061 47.64C107.981 47.64 105.321 47 103.081 45.72C100.881 44.44 99.1805 42.56 97.9805 40.08C96.8205 37.56 96.2405 34.54 96.2405 31.02C96.2405 27.3 96.7805 24.18 97.8605 21.66C98.9805 19.1 100.561 17.18 102.601 15.9C104.681 14.58 107.101 13.92 109.861 13.92ZM109.921 19.38C108.121 19.38 106.661 20.04 105.541 21.36C104.461 22.68 103.841 24.68 103.681 27.36H115.921C115.921 25.8 115.701 24.42 115.261 23.22C114.821 22.02 114.161 21.08 113.281 20.4C112.401 19.72 111.281 19.38 109.921 19.38ZM147.373 48C143.704 48 140.504 47.232 137.773 45.696C135.085 44.16 132.994 41.984 131.501 39.168C130.05 36.3094 129.325 32.96 129.325 29.12C129.325 25.3227 129.944 21.8454 131.181 18.688C132.418 15.488 134.146 12.7147 136.365 10.368C138.584 8.02137 141.144 6.20804 144.045 4.92804C146.989 3.60537 150.125 2.94404 153.453 2.94404C155.586 2.94404 157.549 3.20004 159.341 3.71204C161.176 4.22404 163.01 5.0987 164.845 6.33604L163.373 15.232H161.005L161.325 6.97604C159.149 5.69604 156.376 5.05604 153.005 5.05604C150.104 5.05604 147.416 5.6747 144.941 6.91204C142.509 8.1067 140.397 9.79204 138.605 11.968C136.813 14.1014 135.405 16.6187 134.381 19.52C133.4 22.4214 132.909 25.5787 132.909 28.992C132.909 32.704 133.57 35.8187 134.893 38.336C136.258 40.8107 138.093 42.688 140.397 43.968C142.744 45.248 145.368 45.888 148.269 45.888C150.957 45.888 153.581 45.3334 156.141 44.224L158.829 35.776H161.261L159.405 45.056C157.442 46.0374 155.522 46.7627 153.645 47.232C151.81 47.744 149.72 48 147.373 48ZM167.639 47.04L173.463 19.456L166.167 19.2L166.359 17.92L175.831 16L176.663 16.64L174.935 25.92C175.874 24.2134 176.876 22.6134 177.943 21.12C179.052 19.584 180.204 18.3467 181.399 17.408C182.636 16.4694 183.874 16 185.111 16C187.116 16 188.439 16.5334 189.079 17.6C189.036 18.3254 188.823 18.9227 188.439 19.392C188.055 19.8187 187.5 20.032 186.775 20.032C186.092 20.032 185.41 19.8827 184.727 19.584C184.087 19.2854 183.447 18.9014 182.807 18.432C181.271 19.4987 179.778 20.992 178.327 22.912C176.919 24.832 175.532 27.0294 174.167 29.504L173.271 33.728C172.802 35.9467 172.354 38.1654 171.927 40.384C171.5 42.56 171.052 44.7787 170.583 47.04L168.087 47.424L167.639 47.04ZM203.317 17.856C201.909 17.856 200.458 18.3254 198.965 19.264C197.514 20.16 196.17 21.3974 194.933 22.976C193.696 24.5547 192.65 26.3254 191.797 28.288C190.986 30.2507 190.517 32.2774 190.389 34.368C196.106 32.7467 200.373 30.8054 203.189 28.544C206.005 26.2827 207.413 23.9787 207.413 21.632C207.413 20.3947 207.029 19.456 206.261 18.816C205.536 18.176 204.554 17.856 203.317 17.856ZM196.853 47.872C195.189 47.872 193.653 47.488 192.245 46.72C190.837 45.952 189.706 44.736 188.853 43.072C188 41.3654 187.573 39.1467 187.573 36.416C187.573 33.856 188.021 31.3814 188.917 28.992C189.813 26.56 191.029 24.3627 192.565 22.4C194.101 20.4374 195.85 18.88 197.813 17.728C199.818 16.576 201.909 16 204.085 16C205.834 16 207.264 16.448 208.373 17.344C209.482 18.1974 210.037 19.4987 210.037 21.248C210.037 23.8934 208.437 26.56 205.237 29.248C202.08 31.8934 197.109 34.1547 190.325 36.032C190.41 39.1467 191.114 41.4507 192.437 42.944C193.802 44.3947 195.594 45.12 197.813 45.12C199.733 45.12 201.418 44.6294 202.869 43.648C204.362 42.6667 205.685 41.4294 206.837 39.936L207.861 40.704C206.496 42.7947 204.896 44.5227 203.061 45.888C201.226 47.2107 199.157 47.872 196.853 47.872ZM214.659 38.592C214.659 40.9387 215.086 42.624 215.939 43.648C216.793 44.6294 217.881 45.12 219.203 45.12C220.867 45.12 222.531 44.4587 224.195 43.136C225.902 41.7707 227.843 39.808 230.019 37.248L233.731 19.904C232.537 19.0507 231.257 18.624 229.891 18.624C228.398 18.624 226.883 19.008 225.347 19.776C223.854 20.544 222.446 21.5894 221.123 22.912C219.203 24.8747 217.646 27.264 216.451 30.08C215.257 32.8534 214.659 35.6907 214.659 38.592ZM231.811 47.872C231.001 47.872 230.297 47.5947 229.699 47.04C229.102 46.528 228.803 45.7387 228.803 44.672C228.803 43.8614 228.846 43.136 228.931 42.496C229.059 41.8134 229.23 40.9814 229.443 40L229.507 39.68C227.673 42.0267 225.774 43.9894 223.811 45.568C221.849 47.104 219.865 47.872 217.859 47.872C216.281 47.872 214.83 47.2747 213.507 46.08C212.227 44.8854 211.587 42.8374 211.587 39.936C211.587 37.76 211.971 35.5627 212.739 33.344C213.507 31.0827 214.531 28.928 215.811 26.88C217.134 24.7894 218.627 22.9334 220.291 21.312C221.955 19.6907 223.705 18.4107 225.539 17.472C227.374 16.4907 229.187 16 230.979 16C232.473 16 233.753 16.576 234.819 17.728L236.675 15.744L237.443 16.256L232.323 39.744C232.153 40.4267 232.003 41.1307 231.875 41.856C231.747 42.5387 231.683 43.1574 231.683 43.712C231.683 44.224 231.854 44.5867 232.195 44.8C232.537 45.0134 232.942 45.12 233.411 45.12C234.435 45.12 235.566 44.6294 236.803 43.648C238.041 42.6667 239.235 41.408 240.387 39.872L241.475 40.704C240.195 42.624 238.723 44.3094 237.059 45.76C235.438 47.168 233.689 47.872 231.811 47.872ZM246.57 40.448L251.178 18.752H243.818L244.138 17.152L251.754 16.64L254.122 8.06404H256.298L254.506 16.64H263.146L262.826 19.008L253.994 18.752L249.578 39.744C249.407 40.4267 249.258 41.1094 249.13 41.792C249.002 42.4747 248.938 43.0507 248.938 43.52C248.938 44.5867 249.514 45.12 250.666 45.12C251.647 45.12 252.735 44.672 253.93 43.776C255.125 42.8374 256.383 41.5574 257.706 39.936L258.666 40.704C257.343 42.624 255.871 44.3094 254.25 45.76C252.629 47.168 250.837 47.872 248.874 47.872C248.063 47.872 247.359 47.616 246.762 47.104C246.207 46.592 245.93 45.888 245.93 44.992C245.93 44.3094 245.973 43.6694 246.058 43.072C246.143 42.432 246.314 41.5574 246.57 40.448ZM265.272 44.992C265.272 44.3094 265.336 43.6694 265.464 43.072C265.592 42.432 265.763 41.5574 265.976 40.448L270.456 19.456L263.16 19.2L263.352 17.92L273.08 16L273.912 16.64L268.984 39.744C268.813 40.4267 268.664 41.1307 268.536 41.856C268.408 42.5387 268.344 43.1147 268.344 43.584C268.344 44.608 268.899 45.12 270.008 45.12C270.989 45.12 272.056 44.672 273.208 43.776C274.403 42.8374 275.661 41.5574 276.984 39.936L277.944 40.704C276.579 42.624 275.107 44.3094 273.528 45.76C271.992 47.168 270.243 47.872 268.28 47.872C267.469 47.872 266.765 47.616 266.168 47.104C265.571 46.592 265.272 45.888 265.272 44.992ZM274.232 5.50404C273.549 5.50404 272.952 5.2907 272.44 4.86404C271.928 4.3947 271.672 3.7547 271.672 2.94404C271.672 2.0907 271.971 1.3867 272.568 0.832035C273.165 0.27737 273.805 3.8147e-05 274.488 3.8147e-05C275.213 3.8147e-05 275.811 0.234704 276.28 0.704037C276.749 1.1307 276.984 1.74937 276.984 2.56004C276.984 3.3707 276.685 4.0747 276.088 4.67204C275.533 5.2267 274.915 5.50404 274.232 5.50404ZM287.939 47.296C287.854 43.6694 287.747 40.4267 287.619 37.568C287.534 34.6667 287.406 32 287.235 29.568C287.065 27.0934 286.809 24.704 286.467 22.4C286.254 20.9067 285.955 19.9254 285.571 19.456C285.23 18.9867 284.782 18.752 284.227 18.752C283.545 18.752 282.819 19.072 282.051 19.712C281.326 20.3094 280.409 21.6107 279.299 23.616L278.211 22.976C279.321 20.5014 280.451 18.7307 281.603 17.664C282.798 16.5547 284.078 16 285.443 16C286.595 16 287.47 16.4054 288.067 17.216C288.707 18.0267 289.155 19.4134 289.411 21.376C289.881 24.6187 290.179 28.096 290.307 31.808C290.435 35.4774 290.499 39.488 290.499 43.84C293.017 40.8534 295.214 37.952 297.091 35.136C298.969 32.2774 300.611 29.3974 302.019 26.496C302.233 26.1547 302.403 25.792 302.531 25.408C302.659 25.024 302.809 24.6187 302.979 24.192L302.723 22.336C302.681 21.8667 302.617 21.3334 302.531 20.736C302.446 20.1387 302.403 19.648 302.403 19.264C302.403 18.1547 302.638 17.344 303.107 16.832C303.577 16.2774 304.131 16 304.771 16C305.497 16 306.009 16.192 306.307 16.576C306.521 16.96 306.627 17.5787 306.627 18.432C306.627 19.1574 306.478 20.2027 306.179 21.568C305.923 22.8907 305.134 24.8107 303.811 27.328C302.361 30.1867 300.419 33.344 297.987 36.8C295.555 40.2134 292.654 43.7547 289.283 47.424L288.323 47.552L287.939 47.296ZM323.902 17.856C322.494 17.856 321.043 18.3254 319.55 19.264C318.099 20.16 316.755 21.3974 315.518 22.976C314.281 24.5547 313.235 26.3254 312.382 28.288C311.571 30.2507 311.102 32.2774 310.974 34.368C316.691 32.7467 320.958 30.8054 323.774 28.544C326.59 26.2827 327.998 23.9787 327.998 21.632C327.998 20.3947 327.614 19.456 326.846 18.816C326.121 18.176 325.139 17.856 323.902 17.856ZM317.438 47.872C315.774 47.872 314.238 47.488 312.83 46.72C311.422 45.952 310.291 44.736 309.438 43.072C308.585 41.3654 308.158 39.1467 308.158 36.416C308.158 33.856 308.606 31.3814 309.502 28.992C310.398 26.56 311.614 24.3627 313.15 22.4C314.686 20.4374 316.435 18.88 318.398 17.728C320.403 16.576 322.494 16 324.67 16C326.419 16 327.849 16.448 328.958 17.344C330.067 18.1974 330.622 19.4987 330.622 21.248C330.622 23.8934 329.022 26.56 325.822 29.248C322.665 31.8934 317.694 34.1547 310.91 36.032C310.995 39.1467 311.699 41.4507 313.022 42.944C314.387 44.3947 316.179 45.12 318.398 45.12C320.318 45.12 322.003 44.6294 323.454 43.648C324.947 42.6667 326.27 41.4294 327.422 39.936L328.446 40.704C327.081 42.7947 325.481 44.5227 323.646 45.888C321.811 47.2107 319.742 47.872 317.438 47.872Z" fill="black"/>
</svg>
